<svg width="18" height="16" viewBox="0 0 20 18" fill="none" xmlns="http://www.w3.org/2000/svg">
<path fill-rule="evenodd" clip-rule="evenodd" d="M2.80626 4.96916H1.3119C0.795572 4.96916 0.37854 4.55213 0.37854 4.0358C0.37854 3.51948 0.795572 3.10245 1.3119 3.10245H2.8013C2.85094 2.89393 2.92045 2.68541 3.00485 2.48186C3.32259 1.73716 3.84884 1.11162 4.529 0.674725C6.16734 -0.382749 8.29718 -0.184163 9.71211 1.16623C10.2781 1.71234 10.6504 2.38753 10.8242 3.10245H18.6882C19.2046 3.10245 19.6216 3.51948 19.6216 4.0358C19.6216 4.55213 19.2046 4.96916 18.6882 4.96916H10.8242C10.71 5.43088 10.5114 5.8777 10.2284 6.28976C9.76673 6.95503 9.12628 7.46639 8.37662 7.76923C7.87519 7.97278 7.34397 8.07208 6.81275 8.07208C6.53969 8.07208 6.2716 8.04229 6.00351 7.99264C5.20916 7.8437 4.47936 7.46142 3.89849 6.90042C3.35238 6.3692 2.98499 5.70393 2.80626 4.96916ZM5.54179 2.2386C5.17441 2.4769 4.89142 2.8145 4.71766 3.21663H4.71269C4.5439 3.60388 4.50418 4.0358 4.58858 4.45284C4.67298 4.87483 4.88646 5.25711 5.19427 5.55996C5.51201 5.86777 5.91414 6.07628 6.356 6.16068C6.80282 6.25005 7.25957 6.20536 7.68157 6.03656C8.09363 5.87273 8.44116 5.58975 8.69436 5.22732C9.28515 4.3734 9.17097 3.23153 8.4213 2.51165C7.97448 2.08469 7.39361 1.86128 6.80778 1.86128C6.37089 1.86128 5.934 1.9854 5.54179 2.2386ZM17.1988 13.0368H18.6882V13.0268C19.2046 13.0268 19.6216 13.4439 19.6216 13.9602C19.6216 14.4765 19.2046 14.8936 18.6882 14.8936H17.1939C17.0151 15.6283 16.6428 16.2986 16.1016 16.8248C15.5158 17.3908 14.786 17.7681 13.9917 17.922C13.7285 17.9766 13.4604 18.0014 13.1923 18.0014C12.6562 18.0014 12.1249 17.9021 11.6235 17.6986C10.8738 17.4007 10.2334 16.8893 9.77169 16.2241C9.48374 15.812 9.29012 15.3652 9.17593 14.9035H1.3119C0.795572 14.9035 0.37854 14.4864 0.37854 13.9701C0.37854 13.4538 0.795572 13.0368 1.3119 13.0368H9.18089C9.35466 12.3219 9.72701 11.6467 10.293 11.1005C11.698 9.74519 13.8328 9.54164 15.4711 10.6041C16.1463 11.041 16.6775 11.6665 16.9953 12.4112C17.0797 12.6148 17.1492 12.8233 17.1988 13.0368ZM14.8059 15.4943C15.1137 15.1964 15.3272 14.8092 15.4116 14.3872L15.4066 14.3921C15.491 13.9751 15.4513 13.5432 15.2825 13.151C15.1087 12.7488 14.8257 12.4112 14.4583 12.1729C13.5448 11.5821 12.3632 11.6963 11.5788 12.446C10.8292 13.1658 10.71 14.3077 11.3008 15.1616C11.549 15.529 11.9015 15.8071 12.3136 15.9709C12.7406 16.1446 13.1923 16.1844 13.6392 16.1C14.081 16.0156 14.4832 15.8071 14.8059 15.4943Z" fill="#F7F7F7"/>
</svg>
