<svg width="17" height="18" viewBox="0 0 17 18" fill="none" xmlns="http://www.w3.org/2000/svg">
  <path d="M15.5762 0.335205H1.22461C0.880859 0.335205 0.59082 0.453369 0.354492 0.689697C0.118164 0.926025 0 1.2089 0 1.53833V16.0618C0 16.3912 0.118164 16.6741 0.354492 16.9104C0.59082 17.1467 0.880859 17.2649 1.22461 17.2649H15.5762C15.9199 17.2649 16.21 17.1467 16.4463 16.9104C16.6826 16.6741 16.8008 16.3912 16.8008 16.0618V1.53833C16.8008 1.2089 16.6826 0.926025 16.4463 0.689697C16.21 0.453369 15.9199 0.335205 15.5762 0.335205ZM5.0918 14.4934H2.55664V6.88794H5.0918V14.4934ZM3.82422 5.81372C3.45182 5.81372 3.13672 5.68481 2.87891 5.427C2.62109 5.16919 2.49219 4.86125 2.49219 4.50317C2.49219 4.13078 2.62109 3.81567 2.87891 3.55786C3.13672 3.30005 3.45182 3.17114 3.82422 3.17114C4.18229 3.17114 4.49023 3.30005 4.74805 3.55786C5.00586 3.81567 5.13477 4.13078 5.13477 4.50317C5.13477 4.86125 5.00586 5.16919 4.74805 5.427C4.49023 5.68481 4.18229 5.81372 3.82422 5.81372ZM14.2441 14.4934H11.709V10.4114C11.709 9.89575 11.6087 9.48397 11.4082 9.17603C11.2077 8.86808 10.8783 8.71411 10.4199 8.71411C10.1191 8.72843 9.85059 8.81795 9.61426 8.98267C9.37793 9.14738 9.2168 9.3658 9.13086 9.63794H9.10938C9.09505 9.72388 9.07715 9.8134 9.05566 9.90649C9.03418 9.99959 9.02344 10.0891 9.02344 10.175C9.02344 10.1894 9.02344 10.2037 9.02344 10.218C9.02344 10.2323 9.0306 10.2467 9.04492 10.261V14.4934H6.48828C6.48828 14.4934 6.48828 14.1282 6.48828 13.3977C6.48828 12.6672 6.48828 11.8508 6.48828 10.9485C6.48828 10.0461 6.48828 9.18677 6.48828 8.37036C6.48828 7.55396 6.48828 7.05981 6.48828 6.88794H9.04492V7.96216C9.25977 7.57544 9.56055 7.2675 9.94727 7.03833C10.334 6.80916 10.7637 6.69458 11.2363 6.69458C11.2507 6.69458 11.265 6.69458 11.2793 6.69458C11.2936 6.69458 11.3079 6.69458 11.3223 6.69458C12.1673 6.69458 12.8656 6.97388 13.417 7.53247C13.9684 8.09106 14.2441 8.9576 14.2441 10.1321V14.5149V14.4934Z" fill="#F7F7F7"/>
</svg>