<svg width="22" height="20" viewBox="0 0 22 20" fill="none" xmlns="http://www.w3.org/2000/svg">
<path d="M12.2808 -0.0012207C9.9064 0.00159106 7.63011 0.924366 5.95118 2.5647C4.27225 4.20503 3.32776 6.429 3.32488 8.74878C3.3312 10.6332 3.96601 12.4643 5.13312 13.9645L1.14089 17.865C1.02155 17.9809 0.926805 18.1187 0.862076 18.2705C0.797347 18.4223 0.763907 18.5851 0.763673 18.7495C0.763439 18.9139 0.796415 19.0768 0.860711 19.2287C0.925008 19.3807 1.01936 19.5188 1.13837 19.635C1.25737 19.7513 1.39869 19.8435 1.55422 19.9063C1.70975 19.9691 1.87644 20.0013 2.04474 20.0011C2.21303 20.0009 2.37963 19.9682 2.53498 19.905C2.69033 19.8417 2.83139 19.7492 2.95006 19.6326L6.94229 15.7321C8.47787 16.8724 10.352 17.4926 12.2808 17.4988C14.656 17.4988 16.934 16.5769 18.6135 14.936C20.2931 13.295 21.2367 11.0694 21.2367 8.74878C21.2367 6.42813 20.2931 4.20254 18.6135 2.56159C16.934 0.920652 14.656 -0.0012207 12.2808 -0.0012207ZM12.2808 14.9988C11.0155 14.9988 9.77874 14.6322 8.72675 13.9455C7.67476 13.2587 6.85483 12.2826 6.37066 11.1406C5.88648 9.99851 5.75979 8.74185 6.00663 7.52946C6.25346 6.31708 6.86272 5.20344 7.75736 4.32936C8.65201 3.45528 9.79185 2.86003 11.0328 2.61887C12.2737 2.37771 13.5599 2.50148 14.7288 2.97453C15.8977 3.44758 16.8968 4.24866 17.5997 5.27647C18.3026 6.30427 18.6778 7.51265 18.6778 8.74878C18.6758 10.4058 18.0012 11.9944 16.802 13.166C15.6027 14.3377 13.9768 14.9968 12.2808 14.9988Z" fill="#F7F7F7"/>
</svg>
