<svg width="20" height="20" viewBox="0 0 20 20" fill="none" xmlns="http://www.w3.org/2000/svg">
  <path d="M19.6766 9.8645C19.6766 9.8645 19.6766 9.85734 19.6766 9.84302C19.6766 8.55396 19.4331 7.34367 18.9461 6.21216C18.4592 5.06633 17.7896 4.07088 16.9373 3.22583C16.0851 2.38078 15.0933 1.71476 13.9618 1.22778C12.8303 0.72648 11.6128 0.47583 10.3094 0.47583C9.02036 0.47583 7.81007 0.72648 6.67856 1.22778C5.53272 1.71476 4.53728 2.38078 3.69223 3.22583C2.84718 4.07088 2.18116 5.06633 1.69418 6.21216C1.19288 7.34367 0.94223 8.55396 0.94223 9.84302C0.94223 11.0175 1.14275 12.1275 1.54379 13.1731C1.94483 14.2043 2.49985 15.1318 3.20883 15.9553C3.91782 16.7789 4.75213 17.4628 5.71176 18.0071C6.6714 18.5514 7.70981 18.9166 8.827 19.1028H8.86996V12.5715H6.50668V9.8645H8.86996V7.802C8.86996 6.62752 9.19223 5.72518 9.83676 5.09497C10.4813 4.46476 11.3407 4.14966 12.4149 4.14966C12.7873 4.14966 13.1561 4.16756 13.5213 4.20337C13.8866 4.23918 14.2411 4.28573 14.5848 4.34302H14.5204V6.64185H13.3172C13.3029 6.62752 13.2778 6.62036 13.242 6.62036C13.2062 6.62036 13.174 6.62036 13.1454 6.62036C12.773 6.62036 12.4543 6.75285 12.1893 7.01782C11.9243 7.2828 11.7918 7.60148 11.7918 7.97388C11.7918 8.00252 11.7918 8.02759 11.7918 8.04907C11.7918 8.07056 11.799 8.08846 11.8133 8.10278V9.8645H14.3914L13.9832 12.5715H11.8133V19.1028C12.9305 18.9166 13.9689 18.5514 14.9286 18.0071C15.8882 17.4485 16.7189 16.761 17.4207 15.9446C18.1226 15.1282 18.674 14.1972 19.075 13.1516C19.4761 12.1204 19.6766 11.0247 19.6766 9.8645Z" fill="#F7F7F7"/>
</svg>