<svg width="18" height="18" viewBox="0 0 18 18" fill="none" xmlns="http://www.w3.org/2000/svg">
  <path d="M17.7267 5.34106C17.7267 4.99731 17.6873 4.6464 17.6086 4.28833C17.5298 3.93026 17.4259 3.60083 17.297 3.30005C17.1681 2.99927 17.0321 2.72355 16.8888 2.4729C16.7456 2.22225 16.5451 1.9895 16.2873 1.77466C16.0724 1.55981 15.8397 1.37362 15.589 1.21606C15.3384 1.05851 15.0627 0.936768 14.7619 0.85083C14.4181 0.721924 14.078 0.618082 13.7414 0.539307C13.4048 0.460531 13.0718 0.421143 12.7423 0.421143C12.3127 0.378174 11.9259 0.353109 11.5822 0.345947C11.2384 0.338785 10.4936 0.335205 9.34781 0.335205C8.20198 0.335205 7.44286 0.338785 7.07047 0.345947C6.69807 0.353109 6.30419 0.378174 5.88882 0.421143C5.50211 0.421143 5.14045 0.446207 4.80386 0.496338C4.46727 0.546469 4.14859 0.635986 3.84781 0.764893C3.54703 0.893799 3.25699 1.04061 2.97769 1.20532C2.69839 1.37004 2.45132 1.55981 2.23648 1.77466C2.02164 1.9895 1.83544 2.22225 1.67789 2.4729C1.52033 2.72355 1.39859 2.99927 1.31265 3.30005C1.18375 3.60083 1.07991 3.91951 1.00113 4.2561C0.922353 4.59269 0.882965 4.95435 0.882965 5.34106C0.882965 5.7994 0.882965 6.20402 0.882965 6.55493C0.882965 6.90584 0.882965 7.65422 0.882965 8.80005C0.882965 9.94588 0.886546 10.705 0.893707 11.0774C0.900869 11.4498 0.925934 11.8437 0.968903 12.259C0.968903 12.6028 1.00829 12.9537 1.08707 13.3118C1.16584 13.6698 1.26968 13.9993 1.39859 14.3C1.48453 14.6008 1.60627 14.8765 1.76382 15.1272C1.92138 15.3778 2.10757 15.6106 2.32242 15.8254C2.53726 16.0403 2.77001 16.2301 3.02066 16.3948C3.27131 16.5595 3.54703 16.7063 3.84781 16.8352C4.19156 16.9641 4.53173 17.0572 4.86832 17.1145C5.20491 17.1718 5.54507 17.2219 5.88882 17.2649C6.30419 17.2649 6.68733 17.2649 7.03824 17.2649C7.38915 17.2649 8.15901 17.2649 9.34781 17.2649C10.5366 17.2649 11.3065 17.2613 11.6574 17.2542C12.0083 17.247 12.3914 17.2219 12.8068 17.179C13.1505 17.179 13.5015 17.1396 13.8595 17.0608C14.2176 16.982 14.547 16.8782 14.8478 16.7493C15.3921 16.5344 15.8826 16.2086 16.3195 15.7717C16.7563 15.3349 17.0822 14.8443 17.297 14.3C17.4259 13.9563 17.519 13.6161 17.5763 13.2795C17.6336 12.943 17.6837 12.6028 17.7267 12.259C17.7697 11.8437 17.7947 11.4498 17.8019 11.0774C17.8091 10.705 17.8127 9.94588 17.8127 8.80005C17.8127 7.65422 17.8091 6.8951 17.8019 6.52271C17.7947 6.15031 17.7697 5.75643 17.7267 5.34106ZM16.2013 12.1946C16.2013 12.4381 16.1798 12.703 16.1369 12.9895C16.0939 13.276 16.0294 13.5409 15.9435 13.7844C15.8576 13.9563 15.7681 14.1389 15.675 14.3323C15.5819 14.5256 15.4494 14.6868 15.2775 14.8157C15.1486 14.9303 14.9982 15.0484 14.8263 15.1702C14.6544 15.2919 14.4611 15.3958 14.2462 15.4817C14.0028 15.5676 13.7485 15.6321 13.4836 15.675C13.2186 15.718 12.9429 15.7395 12.6564 15.7395C12.2267 15.7395 11.8293 15.7538 11.464 15.7825C11.0988 15.8111 10.3647 15.8254 9.26187 15.8254C8.15901 15.8254 7.42496 15.8219 7.05972 15.8147C6.69449 15.8075 6.30419 15.7825 5.88882 15.7395C5.63101 15.7395 5.35888 15.718 5.07242 15.675C4.78596 15.6321 4.52099 15.5676 4.2775 15.4817C4.14859 15.3528 4.00536 15.2382 3.84781 15.1379C3.69026 15.0377 3.54703 14.9016 3.41812 14.7297C3.28922 14.6008 3.17105 14.454 3.06363 14.2893C2.95621 14.1246 2.88101 13.9563 2.83804 13.7844C2.70914 13.5409 2.6053 13.2867 2.52652 13.0217C2.44774 12.7568 2.40836 12.481 2.40836 12.1946C2.40836 11.7649 2.39403 11.3674 2.36539 11.0022C2.33674 10.637 2.32242 9.90291 2.32242 8.80005C2.32242 7.69718 2.326 6.96313 2.33316 6.5979C2.34032 6.23267 2.36539 5.83521 2.40836 5.40552C2.40836 5.16203 2.42984 4.89705 2.47281 4.6106C2.51578 4.32414 2.58023 4.05916 2.66617 3.81567C2.75211 3.6438 2.85595 3.4755 2.97769 3.31079C3.09944 3.14608 3.2176 2.99927 3.33218 2.87036C3.46109 2.74146 3.61148 2.61971 3.78336 2.50513C3.95523 2.39054 4.14859 2.29028 4.36343 2.20435C4.60692 2.11841 4.85757 2.05396 5.11539 2.01099C5.3732 1.96802 5.63101 1.94653 5.88882 1.94653C6.34716 1.94653 6.75178 1.93221 7.10269 1.90356C7.4536 1.87492 8.20198 1.8606 9.34781 1.8606C10.4936 1.8606 11.2384 1.86418 11.5822 1.87134C11.9259 1.8785 12.3127 1.90356 12.7423 1.94653C12.9858 1.94653 13.2508 1.96802 13.5373 2.01099C13.8237 2.05396 14.0887 2.11841 14.3322 2.20435C14.5041 2.29028 14.6724 2.39054 14.8371 2.50513C15.0018 2.61971 15.1486 2.74146 15.2775 2.87036C15.4064 2.99927 15.5281 3.14966 15.6427 3.32153C15.7573 3.49341 15.8576 3.68677 15.9435 3.90161C16.0294 4.10213 16.0939 4.34204 16.1369 4.62134C16.1798 4.90063 16.2013 5.16203 16.2013 5.40552C16.2013 5.83521 16.2156 6.23267 16.2443 6.5979C16.2729 6.96313 16.2873 7.69718 16.2873 8.80005C16.2873 9.90291 16.2837 10.637 16.2765 11.0022C16.2694 11.3674 16.2443 11.7649 16.2013 12.1946ZM9.34781 4.48169C8.76057 4.48169 8.19481 4.59627 7.65054 4.82544C7.1206 5.05461 6.6551 5.36613 6.25406 5.76001C5.85302 6.15389 5.53791 6.60864 5.30875 7.12427C5.06526 7.65422 4.94351 8.21281 4.94351 8.80005C4.94351 9.38729 5.0581 9.95304 5.28726 10.4973C5.51643 11.0273 5.82795 11.4928 6.22183 11.8938C6.61571 12.2948 7.07047 12.6099 7.58609 12.8391C8.11604 13.0826 8.67463 13.2043 9.26187 13.2043C9.84911 13.2043 10.4149 13.0898 10.9591 12.8606C11.4891 12.6314 11.9546 12.3199 12.3556 11.926C12.7567 11.5321 13.0718 11.0774 13.3009 10.5618C13.5444 10.0318 13.6662 9.47323 13.6662 8.88599C13.6662 8.2701 13.5516 7.69718 13.3224 7.16724C13.0933 6.62297 12.7817 6.15389 12.3878 5.76001C11.994 5.36613 11.5392 5.05461 11.0236 4.82544C10.4936 4.59627 9.93505 4.48169 9.34781 4.48169ZM9.34781 11.593C8.58869 11.593 7.92984 11.3173 7.37125 10.7659C6.81265 10.2144 6.51187 9.55916 6.4689 8.80005C6.42593 8.04093 6.69091 7.38208 7.26382 6.82349C7.83674 6.26489 8.50276 5.96411 9.26187 5.92114C10.021 5.92114 10.6798 6.19686 11.2384 6.74829C11.797 7.29972 12.0978 7.955 12.1408 8.71411C12.1408 9.51619 11.8651 10.1965 11.3136 10.7551C10.7622 11.3137 10.1069 11.593 9.34781 11.593ZM13.838 3.30005C13.5373 3.30005 13.2902 3.39673 13.0968 3.59009C12.9035 3.78345 12.8068 4.02336 12.8068 4.30981C12.8068 4.6106 12.9035 4.85767 13.0968 5.05103C13.2902 5.24438 13.5373 5.34106 13.838 5.34106C14.1245 5.34106 14.3644 5.24438 14.5578 5.05103C14.7511 4.85767 14.8478 4.6106 14.8478 4.30981C14.8478 4.02336 14.7511 3.78345 14.5578 3.59009C14.3644 3.39673 14.1245 3.30005 13.838 3.30005Z" fill="#F7F7F7"/>
</svg>