<svg width="22" height="20" viewBox="0 0 22 20" fill="none" xmlns="http://www.w3.org/2000/svg">
  <path d="M12.2806 -0.000976562C9.90622 0.0018352 7.62993 0.92461 5.951 2.56494C4.27207 4.20528 3.32758 6.42924 3.3247 8.74902C3.33102 10.6334 3.96582 12.4645 5.13294 13.9648L1.1407 17.8652C1.02137 17.9812 0.926622 18.119 0.861893 18.2708C0.797164 18.4225 0.763724 18.5853 0.76349 18.7497C0.763256 18.9142 0.796232 19.077 0.860528 19.229C0.924825 19.3809 1.01918 19.519 1.13818 19.6353C1.25719 19.7515 1.3985 19.8437 1.55403 19.9065C1.70957 19.9694 1.87626 20.0016 2.04455 20.0014C2.21285 20.0011 2.37945 19.9685 2.5348 19.9052C2.69015 19.842 2.8312 19.7494 2.94988 19.6328L6.94211 15.7324C8.47768 16.8726 10.3518 17.4929 12.2806 17.499C14.6558 17.499 16.9338 16.5772 18.6133 14.9362C20.2929 13.2953 21.2365 11.0697 21.2365 8.74902C21.2365 6.42838 20.2929 4.20278 18.6133 2.56184C16.9338 0.920896 14.6558 -0.000976562 12.2806 -0.000976562ZM12.2806 14.999C11.0154 14.999 9.77856 14.6325 8.72657 13.9457C7.67458 13.259 6.85465 12.2828 6.37047 11.1408C5.88629 9.99876 5.75961 8.74209 6.00644 7.52971C6.25327 6.31733 6.86254 5.20368 7.75718 4.32961C8.65182 3.45553 9.79167 2.86027 11.0326 2.61912C12.2735 2.37796 13.5597 2.50173 14.7286 2.97478C15.8975 3.44782 16.8966 4.2489 17.5995 5.27671C18.3025 6.30452 18.6776 7.51289 18.6776 8.74902C18.6757 10.406 18.001 11.9946 16.8018 13.1663C15.6025 14.338 13.9766 14.9971 12.2806 14.999Z" fill="#F7F7F7"/>
</svg>