<svg width="144" height="35" viewBox="0 0 144 35" fill="none" xmlns="http://www.w3.org/2000/svg">
  <g clip-path="url(#clip0_355_591)">
    <path d="M144 35H0V0H144V35ZM4.96512 30.0067H139.035V4.994H4.96512V30.0067Z" fill="white"/>
    <path d="M13.009 19.884H24.4584V14.9494H13.009V12.4274H25.8768V7.49281H7.44768V27.4514H26.4218V22.5161H13.009V19.884Z" fill="white"/>
    <path d="M55.8634 19.884H67.3128V14.9494H55.8634V12.4274H68.7298V7.49281H50.3021V27.4514H69.2755V22.5161H55.8634V19.884Z" fill="white"/>
    <path d="M29.5848 7.49209V27.4507H35.1461V19.8833H46.5955V14.9494H35.1461V12.4267H48.0125V7.49209H29.5848Z" fill="white"/>
    <path d="M126.083 7.16335C119.881 7.16335 114.851 11.8279 114.851 17.5815C114.851 23.3343 119.88 27.9996 126.083 27.9996C132.286 27.9996 137.316 23.335 137.316 17.5815C137.316 11.8279 132.286 7.16335 126.083 7.16335ZM126.083 23.6116C122.771 23.6116 120.086 20.9115 120.086 17.5815C120.086 14.2492 122.771 11.5498 126.083 11.5498C129.395 11.5498 132.08 14.25 132.08 17.5815C132.08 20.9122 129.395 23.6116 126.083 23.6116Z" fill="white"/>
    <path d="M83.0189 15.1884C78.3734 15.1884 77.454 14.4295 77.454 13.3861C77.454 12.3427 78.444 11.4897 82.3126 11.4897C86.1797 11.4897 89.4694 13.9676 89.4694 13.9676L91.7446 10.3986C91.7446 10.3986 89.0705 7.21983 82.0742 7.21983C75.33 7.21983 72.5119 10.1618 72.4543 13.292C72.3989 16.3136 73.7633 19.6002 81.6041 19.6002C85.7167 19.6002 87.3065 20.5357 87.3065 21.5777C87.3065 22.6211 86.9882 23.524 82.4141 23.524C77.8392 23.524 73.9152 20.7993 73.9152 20.7993L71.6047 24.4364C71.6047 24.4364 74.813 27.9938 82.2168 27.9938C89.6213 27.9938 92.1686 24.3893 92.1686 21.3539C92.1686 18.3186 90.481 15.1884 83.0189 15.1884Z" fill="white"/>
    <path d="M113.824 7.49209H92.9966V12.4267H113.824V7.49209Z" fill="white"/>
    <path d="M103.451 12.4274L100.719 15.6228L100.629 15.6402V27.9503H106.19V14.5244H106.192L103.451 12.4274Z" fill="#E75317"/>
  </g>
  <defs>
    <clipPath id="clip0_355_591">
      <rect width="144" height="35" fill="white"/>
    </clipPath>
  </defs>
</svg>