<svg width="21" height="15" viewBox="0 0 21 15" fill="none" xmlns="http://www.w3.org/2000/svg">
  <path d="M20.1331 2.85864C20.0042 2.41463 19.7786 2.03149 19.4563 1.70923C19.1341 1.38696 18.7581 1.16138 18.3284 1.03247H18.3069C17.9059 0.93221 17.2685 0.853435 16.3948 0.796143C15.5068 0.738851 14.6116 0.695882 13.7093 0.667236C12.8069 0.638591 12.0192 0.624268 11.346 0.624268C10.6585 0.609944 10.3147 0.602783 10.3147 0.602783C10.3147 0.602783 9.97098 0.609944 9.28348 0.624268C8.59598 0.624268 7.79748 0.638591 6.88797 0.667236C5.97846 0.695882 5.0797 0.738851 4.19168 0.796143C3.30366 0.853435 2.65913 0.93221 2.25809 1.03247C1.81408 1.14705 1.43094 1.36548 1.10867 1.68774C0.786407 2.01001 0.567983 2.39315 0.4534 2.83716L0.431915 2.85864C0.303009 3.57479 0.199168 4.33748 0.120392 5.14673C0.0416158 5.95597 0.00222778 6.78312 0.00222778 7.62817C0.00222778 7.65682 0.00222778 7.68547 0.00222778 7.71411C0.00222778 7.74276 0.00222778 7.7714 0.00222778 7.80005C0.00222778 7.82869 0.00222778 7.85734 0.00222778 7.88599C0.00222778 7.91463 0.00222778 7.94328 0.00222778 7.97192C0.00222778 8.81698 0.0416158 9.65129 0.120392 10.4749C0.199168 11.2984 0.317332 12.1112 0.474884 12.9133L0.431915 12.7415C0.560822 13.1998 0.782827 13.5901 1.09793 13.9124C1.41304 14.2346 1.79259 14.453 2.2366 14.5676H2.25809C2.65913 14.6822 3.30366 14.7681 4.19168 14.8254C5.0797 14.8827 5.97488 14.9257 6.87723 14.9543C7.77957 14.983 8.57449 14.9973 9.26199 14.9973C9.93517 14.9973 10.2718 14.9973 10.2718 14.9973C10.2718 14.9973 10.6155 14.9973 11.303 14.9973C11.9905 14.9973 12.7854 14.983 13.6878 14.9543C14.5901 14.9257 15.4853 14.8827 16.3733 14.8254C17.2613 14.7681 17.9059 14.6822 18.3069 14.5676C18.7509 14.453 19.1341 14.2346 19.4563 13.9124C19.7786 13.5901 20.0042 13.2141 20.1331 12.7844V12.7629C20.262 12.0468 20.3658 11.2805 20.4446 10.4641C20.5234 9.64771 20.5628 8.81698 20.5628 7.97192C20.5628 7.94328 20.5628 7.91463 20.5628 7.88599C20.5628 7.85734 20.5628 7.82869 20.5628 7.80005C20.5628 7.7714 20.5628 7.74276 20.5628 7.71411C20.5628 7.68547 20.5628 7.65682 20.5628 7.62817C20.5628 6.78312 20.5234 5.94881 20.4446 5.12524C20.3658 4.30168 20.2548 3.48885 20.1116 2.68677L20.1331 2.85864ZM8.23074 10.8723V4.72778L13.5589 7.80005L8.23074 10.8723Z" fill="#F7F7F7"/>
</svg>