<svg width="22" height="20" viewBox="0 0 32 22" fill="none" xmlns="http://www.w3.org/2000/svg">
<path fill-rule="evenodd" clip-rule="evenodd" d="M1.125 0.875C0.50368 0.875 0 1.37868 0 2C0 2.62132 0.50368 3.125 1.125 3.125H23.625C24.2463 3.125 24.75 2.62132 24.75 2C24.75 1.37868 24.2463 0.875 23.625 0.875H1.125ZM1.125 9.875C0.50368 9.875 0 10.3787 0 11C0 11.6213 0.50368 12.125 1.125 12.125H16.875C17.4963 12.125 18 11.6213 18 11C18 10.3787 17.4963 9.875 16.875 9.875H1.125ZM0 20C0 19.3787 0.50368 18.875 1.125 18.875H12.375C12.9963 18.875 13.5 19.3787 13.5 20C13.5 20.6213 12.9963 21.125 12.375 21.125H1.125C0.50368 21.125 0 20.6213 0 20ZM27.1705 5.7045C26.7312 5.26517 26.0188 5.26517 25.5795 5.7045L21.0795 10.2045C20.6402 10.6438 20.6402 11.3562 21.0795 11.7955C21.5188 12.2348 22.2312 12.2348 22.6705 11.7955L25.25 9.21599V20C25.25 20.6213 25.7537 21.125 26.375 21.125C26.9963 21.125 27.5 20.6213 27.5 20V9.21599L30.0795 11.7955C30.5188 12.2348 31.2312 12.2348 31.6705 11.7955C32.1098 11.3562 32.1098 10.6438 31.6705 10.2045L27.1705 5.7045Z" fill="white"/>
</svg>
