<svg width="22" height="20" viewBox="0 0 32 22" fill="none" xmlns="http://www.w3.org/2000/svg">
<path fill-rule="evenodd" clip-rule="evenodd" d="M1.125 21.125C0.50368 21.125 0 20.6213 0 20C0 19.3787 0.50368 18.875 1.125 18.875H23.625C24.2463 18.875 24.75 19.3787 24.75 20C24.75 20.6213 24.2463 21.125 23.625 21.125H1.125ZM1.125 12.125C0.50368 12.125 0 11.6213 0 11C0 10.3787 0.50368 9.875 1.125 9.875H16.875C17.4963 9.875 18 10.3787 18 11C18 11.6213 17.4963 12.125 16.875 12.125H1.125ZM0 2C0 2.62132 0.50368 3.125 1.125 3.125H12.375C12.9963 3.125 13.5 2.62132 13.5 2C13.5 1.37868 12.9963 0.875 12.375 0.875H1.125C0.50368 0.875 0 1.37868 0 2ZM27.1705 16.2955C26.7312 16.7348 26.0188 16.7348 25.5795 16.2955L21.0795 11.7955C20.6402 11.3562 20.6402 10.6438 21.0795 10.2045C21.5188 9.76517 22.2312 9.76517 22.6705 10.2045L25.25 12.784V2C25.25 1.37868 25.7537 0.875 26.375 0.875C26.9963 0.875 27.5 1.37868 27.5 2V12.784L30.0795 10.2045C30.5188 9.76517 31.2312 9.76517 31.6705 10.2045C32.1098 10.6438 32.1098 11.3562 31.6705 11.7955L27.1705 16.2955Z" fill="white"/>
</svg>
